<svg xmlns="http://www.w3.org/2000/svg" viewBox="0 0 1920 1080" preserveAspectRatio="xMidYMid slice"><defs><linearGradient id="mull" x1="0" y1="0" x2="1" y2="0"><stop offset="0" stop-color="#02070e"/><stop offset=".5" stop-color="#0b1c30"/><stop offset="1" stop-color="#02070e"/></linearGradient><linearGradient id="floor" x1="0" y1="0" x2="0" y2="1"><stop offset="0" stop-color="#03111f" stop-opacity="0"/><stop offset=".35" stop-color="#020b16" stop-opacity=".85"/><stop offset="1" stop-color="#01060c"/></linearGradient><linearGradient id="ring" x1="0" y1="0" x2="1" y2="0"><stop offset="0" stop-color="#ffffff" stop-opacity="0"/><stop offset=".35" stop-color="#cfe8ff" stop-opacity=".95"/><stop offset=".7" stop-color="#7cc4ff" stop-opacity=".7"/><stop offset="1" stop-color="#7cc4ff" stop-opacity="0"/></linearGradient><linearGradient id="streak" x1="0" y1="0" x2="1" y2="0"><stop offset="0" stop-color="#08ceff" stop-opacity="0"/><stop offset=".5" stop-color="#08ceff" stop-opacity=".9"/><stop offset="1" stop-color="#08ceff" stop-opacity="0"/></linearGradient><filter id="blur"><feGaussianBlur stdDeviation="6"/></filter><filter id="blur2"><feGaussianBlur stdDeviation="2"/></filter></defs><path d="M0 0H1920V40Q960 120 0 60Z" fill="#01050b" opacity=".9"/><path d="M-80 150 Q 420 -40 900 40" fill="none" stroke="url(#ring)" stroke-width="10" filter="url(#blur)" opacity=".8"/><path d="M-80 150 Q 420 -40 900 40" fill="none" stroke="url(#ring)" stroke-width="2.5"/><path d="M-60 210 Q 380 40 760 95" fill="none" stroke="url(#ring)" stroke-width="1.5" opacity=".55"/><rect x="0" y="0" width="26" height="1080" fill="url(#mull)"/><rect x="24" y="0" width="1.2" height="1080" fill="#5fb4ff" opacity=".35"/><rect x="210" y="0" width="14" height="1080" fill="url(#mull)"/><rect x="222" y="0" width="1.2" height="1080" fill="#5fb4ff" opacity=".35"/><rect x="470" y="0" width="10" height="1080" fill="url(#mull)"/><rect x="478" y="0" width="1.2" height="1080" fill="#5fb4ff" opacity=".35"/><rect x="1390" y="0" width="10" height="1080" fill="url(#mull)"/><rect x="1398" y="0" width="1.2" height="1080" fill="#5fb4ff" opacity=".35"/><rect x="1650" y="0" width="14" height="1080" fill="url(#mull)"/><rect x="1662" y="0" width="1.2" height="1080" fill="#5fb4ff" opacity=".35"/><rect x="1890" y="0" width="30" height="1080" fill="url(#mull)"/><rect x="1918" y="0" width="1.2" height="1080" fill="#5fb4ff" opacity=".35"/><rect x="0" y="300" width="1920" height="6" fill="#02070e" opacity=".85"/><rect x="0" y="306" width="1920" height="1" fill="#5fb4ff" opacity=".22"/><rect x="0" y="620" width="1920" height="6" fill="#02070e" opacity=".85"/><rect x="0" y="626" width="1920" height="1" fill="#5fb4ff" opacity=".22"/><path d="M120 0 L210 0 L-40 1080 L-130 1080 Z" fill="#9fd4ff" opacity=".035"/><path d="M560 0 L650 0 L400 1080 L310 1080 Z" fill="#9fd4ff" opacity=".035"/><path d="M1480 0 L1570 0 L1320 1080 L1230 1080 Z" fill="#9fd4ff" opacity=".035"/><path d="M1760 0 L1850 0 L1600 1080 L1510 1080 Z" fill="#9fd4ff" opacity=".035"/><rect x="0" y="780" width="1920" height="300" fill="url(#floor)"/><rect x="-200" y="930" width="1100" height="1.2" fill="url(#streak)" opacity="0.25"/><rect x="900" y="948" width="900" height="1" fill="url(#streak)" opacity="0.18"/><rect x="-80" y="970" width="1300" height="1.6" fill="url(#streak)" opacity="0.37"/><rect x="820" y="988" width="900" height="1" fill="url(#streak)" opacity="0.26"/><rect x="40" y="1010" width="1500" height="2.0" fill="url(#streak)" opacity="0.49"/><rect x="740" y="1028" width="900" height="1" fill="url(#streak)" opacity="0.33999999999999997"/><rect x="160" y="1040" width="1700" height="2.4000000000000004" fill="url(#streak)" opacity="0.61"/><rect x="660" y="1058" width="900" height="1" fill="url(#streak)" opacity="0.42"/><rect x="483" y="870" width="2" height="78" fill="#5fb4ff" opacity="0.13" filter="url(#blur2)"/><rect x="980" y="870" width="2" height="59" fill="#5fb4ff" opacity="0.06" filter="url(#blur2)"/><rect x="822" y="870" width="4" height="110" fill="#5fb4ff" opacity="0.14" filter="url(#blur2)"/><rect x="1567" y="870" width="3" height="47" fill="#5fb4ff" opacity="0.11" filter="url(#blur2)"/><rect x="737" y="870" width="3" height="75" fill="#5fb4ff" opacity="0.14" filter="url(#blur2)"/><rect x="536" y="870" width="2" height="67" fill="#5fb4ff" opacity="0.14" filter="url(#blur2)"/><rect x="1652" y="870" width="4" height="73" fill="#5fb4ff" opacity="0.07" filter="url(#blur2)"/><rect x="634" y="870" width="4" height="77" fill="#5fb4ff" opacity="0.06" filter="url(#blur2)"/><rect x="1240" y="870" width="5" height="83" fill="#5fb4ff" opacity="0.11" filter="url(#blur2)"/><rect x="364" y="870" width="5" height="71" fill="#5fb4ff" opacity="0.08" filter="url(#blur2)"/><rect x="1914" y="870" width="4" height="110" fill="#5fb4ff" opacity="0.05" filter="url(#blur2)"/><rect x="597" y="870" width="4" height="113" fill="#5fb4ff" opacity="0.14" filter="url(#blur2)"/><rect x="1041" y="870" width="5" height="64" fill="#5fb4ff" opacity="0.10" filter="url(#blur2)"/><rect x="590" y="870" width="5" height="95" fill="#5fb4ff" opacity="0.07" filter="url(#blur2)"/><rect x="624" y="870" width="2" height="73" fill="#5fb4ff" opacity="0.06" filter="url(#blur2)"/><rect x="947" y="870" width="4" height="120" fill="#5fb4ff" opacity="0.11" filter="url(#blur2)"/><rect x="1327" y="870" width="4" height="100" fill="#5fb4ff" opacity="0.07" filter="url(#blur2)"/><rect x="1379" y="870" width="2" height="65" fill="#5fb4ff" opacity="0.10" filter="url(#blur2)"/><rect x="415" y="870" width="5" height="121" fill="#5fb4ff" opacity="0.08" filter="url(#blur2)"/><rect x="728" y="870" width="6" height="95" fill="#5fb4ff" opacity="0.09" filter="url(#blur2)"/><rect x="1143" y="870" width="4" height="65" fill="#5fb4ff" opacity="0.06" filter="url(#blur2)"/><rect x="126" y="870" width="3" height="130" fill="#5fb4ff" opacity="0.08" filter="url(#blur2)"/><rect x="1192" y="870" width="3" height="118" fill="#5fb4ff" opacity="0.06" filter="url(#blur2)"/><rect x="1914" y="870" width="4" height="62" fill="#5fb4ff" opacity="0.10" filter="url(#blur2)"/><rect x="87" y="870" width="2" height="85" fill="#5fb4ff" opacity="0.15" filter="url(#blur2)"/><rect x="585" y="870" width="4" height="134" fill="#5fb4ff" opacity="0.05" filter="url(#blur2)"/><rect x="591" y="870" width="3" height="81" fill="#5fb4ff" opacity="0.14" filter="url(#blur2)"/><rect x="840" y="870" width="2" height="119" fill="#5fb4ff" opacity="0.08" filter="url(#blur2)"/><rect x="392" y="870" width="4" height="96" fill="#5fb4ff" opacity="0.07" filter="url(#blur2)"/><rect x="781" y="870" width="3" height="116" fill="#5fb4ff" opacity="0.09" filter="url(#blur2)"/><rect x="19" y="870" width="2" height="86" fill="#5fb4ff" opacity="0.10" filter="url(#blur2)"/><rect x="747" y="870" width="4" height="140" fill="#5fb4ff" opacity="0.16" filter="url(#blur2)"/><rect x="1170" y="870" width="5" height="52" fill="#5fb4ff" opacity="0.16" filter="url(#blur2)"/><rect x="868" y="870" width="2" height="66" fill="#5fb4ff" opacity="0.06" filter="url(#blur2)"/><rect x="113" y="870" width="3" height="134" fill="#5fb4ff" opacity="0.12" filter="url(#blur2)"/><rect x="306" y="870" width="2" height="117" fill="#5fb4ff" opacity="0.11" filter="url(#blur2)"/><rect x="1193" y="870" width="4" height="71" fill="#5fb4ff" opacity="0.16" filter="url(#blur2)"/><rect x="250" y="870" width="4" height="107" fill="#5fb4ff" opacity="0.14" filter="url(#blur2)"/><rect x="838" y="870" width="3" height="123" fill="#5fb4ff" opacity="0.10" filter="url(#blur2)"/><rect x="495" y="870" width="5" height="96" fill="#5fb4ff" opacity="0.10" filter="url(#blur2)"/><rect x="0" y="1077" width="1920" height="2" fill="url(#streak)" opacity=".8"/></svg>